<svg width="1200" height="800" viewBox="0 0 1200 800" fill="none" xmlns="http://www.w3.org/2000/svg">
  <rect width="1200" height="800" rx="56" fill="#FFFBEB"/>
  <circle cx="260" cy="620" r="220" fill="#FDBA74" fill-opacity="0.18"/>
  <circle cx="940" cy="180" r="180" fill="#60A5FA" fill-opacity="0.18"/>
  <rect x="130" y="120" width="940" height="560" rx="44" fill="white"/>
  <rect x="190" y="170" width="270" height="26" rx="13" fill="#D97706"/>
  <rect x="190" y="222" width="600" height="58" rx="26" fill="#111827"/>
  <rect x="190" y="320" width="600" height="20" rx="10" fill="#E5E7EB"/>
  <rect x="190" y="354" width="530" height="20" rx="10" fill="#E5E7EB"/>
  <rect x="190" y="388" width="450" height="20" rx="10" fill="#E5E7EB"/>
  <rect x="190" y="470" width="720" height="150" rx="28" fill="#FEF3C7"/>
  <path d="M260 540C320 468 400 468 460 540C520 612 600 612 660 540" stroke="#D97706" stroke-width="18" stroke-linecap="round" stroke-linejoin="round"/>
  <circle cx="260" cy="540" r="20" fill="#D97706"/>
  <circle cx="460" cy="540" r="20" fill="#D97706"/>
  <circle cx="660" cy="540" r="20" fill="#D97706"/>
  <path d="M860 500h120" stroke="#1D4ED8" stroke-width="16" stroke-linecap="round"/>
  <path d="M860 540h180" stroke="#93C5FD" stroke-width="16" stroke-linecap="round"/>
</svg>