<svg width="1200" height="800" viewBox="0 0 1200 800" fill="none" xmlns="http://www.w3.org/2000/svg">
  <rect width="1200" height="800" rx="56" fill="#EFF6FF"/>
  <circle cx="210" cy="150" r="150" fill="#93C5FD" fill-opacity="0.25"/>
  <circle cx="980" cy="650" r="210" fill="#FDBA74" fill-opacity="0.25"/>
  <rect x="140" y="120" width="920" height="560" rx="44" fill="white"/>
  <rect x="210" y="180" width="250" height="26" rx="13" fill="#1D4ED8"/>
  <rect x="210" y="232" width="500" height="58" rx="26" fill="#111827"/>
  <rect x="210" y="330" width="570" height="20" rx="10" fill="#E5E7EB"/>
  <rect x="210" y="364" width="510" height="20" rx="10" fill="#E5E7EB"/>
  <rect x="210" y="398" width="450" height="20" rx="10" fill="#E5E7EB"/>
  <rect x="210" y="470" width="330" height="150" rx="28" fill="#DBEAFE"/>
  <rect x="580" y="470" width="360" height="150" rx="28" fill="#FEF3C7"/>
  <path d="M325 500L360 535L430 455" stroke="#1D4ED8" stroke-width="18" stroke-linecap="round" stroke-linejoin="round"/>
  <circle cx="360" cy="540" r="58" stroke="#1D4ED8" stroke-width="14"/>
  <path d="M685 500h130" stroke="#D97706" stroke-width="16" stroke-linecap="round"/>
  <path d="M685 540h190" stroke="#FDBA74" stroke-width="16" stroke-linecap="round"/>
</svg>