<svg width="1200" height="800" viewBox="0 0 1200 800" fill="none" xmlns="http://www.w3.org/2000/svg">
  <rect width="1200" height="800" rx="56" fill="#FFF7ED"/>
  <circle cx="220" cy="180" r="160" fill="#FDBA74" fill-opacity="0.25"/>
  <circle cx="950" cy="620" r="220" fill="#60A5FA" fill-opacity="0.18"/>
  <rect x="140" y="120" width="920" height="560" rx="44" fill="white"/>
  <rect x="210" y="180" width="210" height="26" rx="13" fill="#FDBA74"/>
  <rect x="210" y="232" width="460" height="58" rx="26" fill="#111827"/>
  <rect x="210" y="326" width="620" height="20" rx="10" fill="#E5E7EB"/>
  <rect x="210" y="360" width="540" height="20" rx="10" fill="#E5E7EB"/>
  <rect x="210" y="394" width="480" height="20" rx="10" fill="#E5E7EB"/>
  <rect x="210" y="470" width="320" height="150" rx="28" fill="#FEF3C7"/>
  <rect x="560" y="470" width="380" height="150" rx="28" fill="#DBEAFE"/>
  <path d="M275 545L322 498L360 536L420 472" stroke="#D97706" stroke-width="16" stroke-linecap="round" stroke-linejoin="round"/>
  <circle cx="420" cy="472" r="12" fill="#D97706"/>
  <path d="M620 550h230" stroke="#1D4ED8" stroke-width="16" stroke-linecap="round"/>
  <path d="M620 510h160" stroke="#93C5FD" stroke-width="16" stroke-linecap="round"/>
</svg>